# Blender v3.0.1 OBJ File: ''
# www.blender.org
mtllib chess_bishop.mtl
o Bishop_Cylinder.003
v -0.004911 -8.353461 -4.007067
v -0.004911 -7.594181 -4.455828
v 2.857917 -8.353461 -2.821245
v 3.175239 -7.594181 -3.138567
v 4.043738 -8.353461 0.041583
v 4.492499 -7.594181 0.041583
v 2.857917 -8.353461 2.904410
v 3.175239 -7.594181 3.221732
v -0.004911 -8.353461 4.090232
v -0.004911 -7.594181 4.538993
v -2.867738 -8.353461 2.904409
v -3.185060 -7.594181 3.221731
v -4.053560 -8.353461 0.041583
v -4.502321 -7.594181 0.041583
v -2.867738 -8.353461 -2.821244
v -3.185060 -7.594181 -3.138566
v 2.677711 -6.678375 -2.641039
v -0.004911 -6.678375 -3.752216
v 3.788888 -6.678375 0.041583
v 2.677711 -6.678375 2.724204
v -0.004911 -6.678375 3.835382
v -2.687532 -6.678375 2.724203
v -3.798709 -6.678375 0.041583
v -2.687532 -6.678375 -2.641038
v 3.036568 -5.640461 -2.999896
v -0.004911 -5.640461 -4.259717
v 4.296388 -5.640461 0.041583
v 3.036568 -5.640461 3.083061
v -0.004911 -5.640461 4.342882
v -3.046389 -5.640461 3.083060
v -4.306211 -5.640461 0.041583
v -3.046389 -5.640461 -2.999895
v 1.856481 -4.510968 -1.819809
v -0.004911 -4.510968 -2.590822
v 2.627494 -4.510968 0.041583
v 1.856481 -4.510968 1.902974
v -0.004911 -4.510968 2.673987
v -1.866302 -4.510968 1.902974
v -2.637316 -4.510968 0.041583
v -1.866302 -4.510968 -1.819809
v 1.770693 -3.930958 -1.734021
v -0.004911 -3.930958 -2.469501
v 2.506172 -3.930958 0.041583
v 1.770693 -3.930958 1.817186
v -0.004911 -3.930958 2.552666
v -1.780515 -3.930958 1.817186
v -2.515994 -3.930958 0.041583
v -1.780515 -3.930958 -1.734021
v 0.994714 -0.389841 -0.958042
v -0.004911 -0.389841 -1.372100
v 1.408772 -0.389841 0.041583
v 0.994714 -0.389841 1.041207
v -0.004911 -0.389841 1.455266
v -1.004536 -0.389841 1.041207
v -1.418594 -0.389841 0.041583
v -1.004536 -0.389841 -0.958042
v 1.215392 1.167030 -1.178720
v -0.004910 1.167030 -1.684185
v 1.720858 1.167030 0.041583
v 1.215392 1.167030 1.261885
v -0.004910 1.167030 1.767350
v -1.225213 1.167030 1.261884
v -1.730678 1.167030 0.041583
v -1.225213 1.167030 -1.178719
v 1.863947 1.624934 -1.827274
v -0.004910 1.624934 -2.601380
v 2.638052 1.624934 0.041583
v 1.863947 1.624934 1.910439
v -0.004910 1.624934 2.684545
v -1.873767 1.624934 1.910439
v -2.647872 1.624934 0.041583
v -1.873767 1.624934 -1.827274
v 1.498831 2.174417 -1.462158
v -0.004910 2.174417 -2.085028
v 2.121700 2.174417 0.041583
v 1.498831 2.174417 1.545323
v -0.004910 2.174417 2.168193
v -1.508651 2.174417 1.545323
v -2.131521 2.174417 0.041583
v -1.508651 2.174417 -1.462158
v 1.406352 2.662848 -1.369680
v -0.004910 2.662848 -1.954243
v 1.990916 2.662848 0.041583
v 1.406352 2.662848 1.452845
v -0.004910 2.662848 2.037409
v -1.416173 2.662848 1.452844
v -2.000736 2.662848 0.041583
v -1.416173 2.662848 -1.369679
v 1.070899 3.181804 -1.034226
v -0.004910 3.181804 -1.479841
v 1.516513 3.181804 0.041583
v 1.070899 3.181804 1.117391
v -0.004910 3.181804 1.563006
v -1.080719 3.181804 1.117391
v -1.526334 3.181804 0.041583
v -1.080719 3.181804 -1.034226
v 1.070899 3.303911 -1.034226
v -0.004910 3.303911 -1.479841
v 1.516513 3.303911 0.041583
v 1.070899 3.303911 1.117391
v -0.004910 3.303911 1.563006
v -1.080719 3.303911 1.117391
v -1.526334 3.303911 0.041583
v -1.080719 3.303911 -1.034226
v 1.242822 3.456547 -1.206150
v -0.004910 3.456547 -1.722977
v 1.759650 3.456547 0.041583
v 1.242822 3.456547 1.289315
v -0.004911 3.456547 1.806142
v -1.252643 3.456547 1.289315
v -1.769470 3.456547 0.041583
v -1.252643 3.456547 -1.206149
v 1.112004 3.700761 -1.075332
v -0.004910 3.700761 -1.537973
v 1.574645 3.700761 0.041583
v 1.112004 3.700761 1.158497
v -0.004911 3.700761 1.621138
v -1.121825 3.700761 1.158497
v -1.584466 3.700761 0.041583
v -1.121825 3.700761 -1.075332
v 1.739628 5.837643 -1.763613
v -0.004911 5.837643 -2.438643
v 1.739628 5.837643 1.495720
v -0.004911 5.837643 2.170750
v -1.749449 5.837643 1.495720
v -1.749449 5.837643 -1.763613
v -0.982409 8.148355 -1.111445
v -1.387302 8.148355 -0.133947
v -0.004911 8.148355 1.248445
v 1.377481 8.148355 -0.133947
v -0.004911 8.148355 -1.516338
v 0.972588 8.148355 -1.111445
v -0.632178 9.335512 -0.379629
v -0.892001 9.335512 0.247639
v 0.882180 9.335512 0.247639
v -0.004911 9.335512 -0.639452
v 0.622357 9.335512 -0.379629
v -0.879552 9.335512 0.277694
v -1.333328 8.148355 -0.003642
v -2.287036 5.837643 -0.551222
v -1.645487 7.598381 -0.133947
v 1.323837 8.148355 -0.004439
v 0.869948 9.335512 0.277170
v 1.633717 7.602530 -0.133947
v 2.276608 5.837643 -0.552591
v 1.996622 5.320673 -0.675080
v -1.622604 4.611155 -0.842220
v 2.207353 5.224004 -0.083541
v -0.340021 8.148355 1.109637
v 2.154083 5.837643 0.561023
v -1.152642 7.635527 0.988290
v 1.941054 5.059743 0.376648
v -2.163329 5.837643 0.562318
v -1.752137 4.335724 0.206092
v -0.004911 8.565639 1.208474
v 0.330685 8.148355 1.109436
v 1.142381 7.636854 0.987916
v -1.860477 4.365258 -0.013001
v -0.004910 10.637500 -0.638327
v -0.004910 10.156603 -0.837520
v -0.004910 9.675707 -0.638327
v 0.335136 10.637500 -0.497475
v 0.475987 10.156603 -0.638327
v 0.335136 9.675707 -0.497475
v 0.475987 10.637500 -0.157430
v 0.675181 10.156603 -0.157430
v 0.475987 9.675707 -0.157430
v 0.335136 10.637500 0.182615
v 0.475987 10.156603 0.323466
v 0.335136 9.675707 0.182615
v -0.004910 9.543581 -0.562589
v -0.004910 10.637500 0.323466
v -0.004910 10.156603 0.522660
v -0.004910 9.675707 0.323466
v -0.004910 10.836695 -0.157430
v -0.344954 10.637500 0.182615
v -0.485806 10.156603 0.323466
v -0.344954 9.675707 0.182615
v -0.485806 10.637500 -0.157430
v -0.685000 10.156603 -0.157430
v -0.485806 9.675707 -0.157430
v -0.344954 10.637500 -0.497475
v -0.485806 10.156603 -0.638327
v -0.344954 9.675707 -0.497475
v 0.281581 9.543581 -0.443921
v 0.400250 9.543581 -0.157430
v 0.281581 9.543581 0.129061
v -0.004910 9.543581 0.247729
v -0.291400 9.543581 0.129061
v -0.410069 9.543581 -0.157430
v -0.291400 9.543581 -0.443920
vt 1.000000 0.500000
vt 1.000000 1.000000
vt 0.875000 1.000000
vt 0.875000 0.500000
vt 0.750000 1.000000
vt 0.750000 0.500000
vt 0.625000 1.000000
vt 0.625000 0.500000
vt 0.500000 1.000000
vt 0.500000 0.500000
vt 0.375000 1.000000
vt 0.375000 0.500000
vt 0.250000 1.000000
vt 0.250000 0.500000
vt 0.500000 1.000000
vt 0.375000 1.000000
vt 0.125000 1.000000
vt 0.125000 0.500000
vt 0.000000 1.000000
vt 0.000000 0.500000
vt 0.750000 0.490000
vt 0.919706 0.419706
vt 0.990000 0.250000
vt 0.919706 0.080294
vt 0.750000 0.010000
vt 0.580294 0.080294
vt 0.510000 0.250000
vt 0.580294 0.419706
vt 0.750000 1.000000
vt 0.875000 1.000000
vt 0.875000 1.000000
vt 0.750000 1.000000
vt 0.125000 1.000000
vt 0.000000 1.000000
vt 1.000000 1.000000
vt 0.625000 1.000000
vt 0.250000 1.000000
vt 0.000000 1.000000
vt 0.125000 1.000000
vt 0.125000 1.000000
vt 0.000000 1.000000
vt 0.250000 1.000000
vt 0.500000 1.000000
vt 0.375000 1.000000
vt 0.625000 1.000000
vt 1.000000 1.000000
vt 0.625000 1.000000
vt 0.750000 1.000000
vt 0.750000 1.000000
vt 0.625000 1.000000
vt 0.375000 1.000000
vt 0.250000 1.000000
vt 0.500000 1.000000
vt 0.875000 1.000000
vt 1.000000 1.000000
vt 0.125000 1.000000
vt 0.250000 1.000000
vt 0.250000 1.000000
vt 0.125000 1.000000
vt 1.000000 1.000000
vt 0.875000 1.000000
vt 0.000000 1.000000
vt 0.375000 1.000000
vt 0.500000 1.000000
vt 0.500000 1.000000
vt 0.625000 1.000000
vt 0.625000 1.000000
vt 0.500000 1.000000
vt 0.375000 1.000000
vt 0.750000 1.000000
vt 1.000000 1.000000
vt 0.875000 1.000000
vt 0.000000 1.000000
vt 0.000000 1.000000
vt 0.125000 1.000000
vt 0.125000 1.000000
vt 0.000000 1.000000
vt 0.875000 1.000000
vt 0.750000 1.000000
vt 0.250000 1.000000
vt 0.375000 1.000000
vt 1.000000 1.000000
vt 0.375000 1.000000
vt 0.500000 1.000000
vt 0.500000 1.000000
vt 0.375000 1.000000
vt 0.250000 1.000000
vt 0.625000 1.000000
vt 0.875000 1.000000
vt 0.750000 1.000000
vt 1.000000 1.000000
vt 0.125000 1.000000
vt 0.250000 1.000000
vt 0.250000 1.000000
vt 0.125000 1.000000
vt 0.750000 1.000000
vt 0.625000 1.000000
vt 1.000000 1.000000
vt 0.875000 1.000000
vt 0.000000 1.000000
vt 0.375000 1.000000
vt 0.375000 1.000000
vt 0.250000 1.000000
vt 0.500000 1.000000
vt 0.750000 1.000000
vt 0.625000 1.000000
vt 1.000000 1.000000
vt 0.875000 1.000000
vt 0.000000 1.000000
vt 0.875000 1.000000
vt 1.000000 1.000000
vt 1.000000 1.000000
vt 0.875000 1.000000
vt 0.625000 1.000000
vt 0.500000 1.000000
vt 0.750000 1.000000
vt 0.125000 1.000000
vt 0.000000 1.000000
vt 0.125000 1.000000
vt 0.250000 1.000000
vt 0.250000 1.000000
vt 0.125000 1.000000
vt 0.000000 1.000000
vt 0.375000 1.000000
vt 0.625000 1.000000
vt 0.500000 1.000000
vt 0.750000 1.000000
vt 0.750000 1.000000
vt 0.875000 1.000000
vt 0.875000 1.000000
vt 0.750000 1.000000
vt 0.500000 1.000000
vt 0.375000 1.000000
vt 0.625000 1.000000
vt 1.000000 1.000000
vt 0.000000 1.000000
vt 0.000000 1.000000
vt 0.125000 1.000000
vt 0.125000 1.000000
vt 0.000000 1.000000
vt 0.250000 1.000000
vt 0.500000 1.000000
vt 0.375000 1.000000
vt 0.625000 1.000000
vt 1.000000 1.000000
vt 0.500000 1.000000
vt 0.625000 1.000000
vt 0.625000 1.000000
vt 0.542915 1.000000
vt 0.500000 1.000000
vt 0.375000 1.000000
vt 0.303405 1.000000
vt 0.270740 1.000000
vt 0.250000 1.000000
vt 0.875000 1.000000
vt 0.782111 1.000000
vt 0.798652 1.000000
vt 0.750000 1.000000
vt 0.174203 1.000000
vt 0.217994 1.000000
vt 0.711470 1.000000
vt 0.696694 1.000000
vt 1.000000 1.000000
vt 0.457147 1.000000
vt 0.375000 1.000000
vt 1.000000 1.000000
vt 0.875000 1.000000
vt 0.250000 1.000000
vt 0.250000 1.000000
vt 0.125000 1.000000
vt 0.000000 1.000000
vt 0.266663 1.000000
vt 0.255989 1.000000
vt 0.250000 1.000000
vt 0.125000 1.000000
vt 0.500000 1.000000
vt 0.000000 1.000000
vt 0.750000 1.000000
vt 0.875000 1.000000
vt 0.750000 1.000000
vt 1.000000 1.000000
vt 1.000000 0.250000
vt 0.875000 0.250000
vt 0.667650 0.500000
vt 0.791832 0.500000
vt 0.800791 0.612039
vt 0.793711 0.750000
vt 0.672016 0.750000
vt 0.664009 0.550766
vt 0.625000 0.797016
vt 0.625000 0.918711
vt 0.608626 0.931216
vt 0.541622 0.922247
vt 0.520129 0.915885
vt 0.474909 0.909158
vt 0.462756 0.852626
vt 0.501670 0.830022
vt 0.518990 0.816257
vt 0.576924 0.783749
vt 0.733439 1.000000
vt 0.750000 1.000000
vt 0.625000 0.333168
vt 0.625000 0.457350
vt 0.568924 0.460592
vt 0.512237 0.415907
vt 0.499710 0.386219
vt 0.487252 0.372599
vt 0.504369 0.364546
vt 0.528133 0.341738
vt 0.598915 0.321081
vt 0.744115 1.000000
vt 0.750000 0.250000
vt 0.750000 0.500000
vt 0.625000 0.500000
vt 0.625000 0.250000
vt 0.750000 0.750000
vt 0.687500 1.000000
vt 0.625000 0.750000
vt 0.875000 0.250000
vt 0.750000 0.250000
vt 0.500000 0.500000
vt 0.500000 0.250000
vt 0.562500 1.000000
vt 0.500000 0.750000
vt 0.375000 0.250000
vt 0.375000 0.250000
vt 0.500000 0.250000
vt 0.375000 0.500000
vt 0.437500 1.000000
vt 0.375000 0.750000
vt 0.625000 0.250000
vt 0.250000 0.500000
vt 0.250000 0.250000
vt 0.312500 1.000000
vt 0.250000 0.750000
vt 0.250000 0.250000
vt 0.125000 0.500000
vt 0.125000 0.250000
vt 0.187500 1.000000
vt 0.125000 0.750000
vt 0.000000 0.500000
vt 0.000000 0.250000
vt 0.062500 1.000000
vt 0.000000 0.750000
vt 0.125000 0.250000
vt 1.000000 0.500000
vt 1.000000 0.750000
vt 0.875000 0.750000
vt 0.875000 0.500000
vt 1.000000 0.250000
vt 0.937500 1.000000
vt 0.000000 0.250000
vt 0.812500 1.000000
vn 0.3359 -0.4793 -0.8109
vn 0.8109 -0.4793 -0.3359
vn 0.8109 -0.4793 0.3359
vn 0.3359 -0.4793 0.8109
vn -0.3359 -0.4793 0.8109
vn -0.8109 -0.4793 0.3359
vn -0.3121 0.5788 0.7534
vn -0.8109 -0.4793 -0.3359
vn -0.3359 -0.4793 -0.8109
vn 0.0000 -1.0000 -0.0000
vn 0.8420 -0.4117 -0.3487
vn -0.3121 0.5788 -0.7534
vn 0.3121 0.5788 -0.7534
vn 0.7534 0.5788 0.3121
vn -0.7534 0.5788 0.3121
vn 0.3121 0.5788 0.7534
vn -0.7534 0.5788 -0.3121
vn 0.7534 0.5788 -0.3121
vn -0.2261 0.8067 -0.5460
vn -0.8420 -0.4117 -0.3487
vn -0.3487 -0.4117 0.8420
vn 0.8420 -0.4117 0.3487
vn 0.3487 -0.4117 -0.8420
vn -0.3487 -0.4117 -0.8420
vn -0.8420 -0.4117 0.3487
vn 0.3487 -0.4117 0.8420
vn 0.9071 0.1897 0.3757
vn -0.5460 0.8067 0.2261
vn 0.2261 0.8067 0.5460
vn 0.5460 0.8067 -0.2261
vn -0.5460 0.8067 -0.2261
vn -0.2261 0.8067 0.5460
vn 0.5460 0.8067 0.2261
vn 0.2261 0.8067 -0.5460
vn -0.8882 0.2753 -0.3679
vn 0.3757 0.1897 -0.9071
vn -0.3757 0.1897 -0.9071
vn -0.9071 0.1897 0.3757
vn 0.3757 0.1897 0.9071
vn 0.9071 0.1897 -0.3757
vn -0.9071 0.1897 -0.3757
vn -0.3757 0.1897 0.9071
vn 0.3763 -0.1821 0.9084
vn -0.3679 0.2753 0.8882
vn 0.8882 0.2753 0.3679
vn 0.3679 0.2753 -0.8882
vn -0.3679 0.2753 -0.8882
vn -0.8882 0.2753 0.3679
vn 0.3679 0.2753 0.8882
vn 0.8882 0.2753 -0.3679
vn -0.1819 -0.8798 -0.4392
vn 0.9084 -0.1821 -0.3763
vn -0.9084 -0.1821 -0.3763
vn -0.3763 -0.1821 0.9084
vn 0.9084 -0.1821 0.3763
vn 0.3763 -0.1821 -0.9084
vn -0.3763 -0.1821 -0.9084
vn -0.9084 -0.1821 0.3763
vn -0.2890 0.6556 0.6976
vn -0.4392 -0.8798 0.1819
vn 0.1819 -0.8798 0.4392
vn 0.4392 -0.8798 -0.1819
vn -0.4392 -0.8798 -0.1819
vn -0.1819 -0.8798 0.4392
vn 0.4392 -0.8798 0.1819
vn 0.1819 -0.8798 -0.4392
vn -0.8968 0.2401 -0.3715
vn 0.6976 0.6556 0.2890
vn 0.2890 0.6556 -0.6976
vn -0.2890 0.6556 -0.6976
vn -0.6976 0.6556 0.2890
vn 0.2890 0.6556 0.6976
vn 0.6976 0.6556 -0.2890
vn -0.6976 0.6556 -0.2890
vn -0.7058 0.6452 0.2924
vn -0.3715 0.2401 0.8968
vn 0.8968 0.2401 0.3715
vn 0.3715 0.2401 -0.8968
vn -0.3715 0.2401 -0.8968
vn -0.8968 0.2401 0.3715
vn 0.3715 0.2401 0.8968
vn 0.8968 0.2401 -0.3715
vn 0.3827 0.0000 -0.9239
vn 0.2924 0.6452 0.7058
vn 0.7058 0.6452 -0.2924
vn -0.7058 0.6452 -0.2924
vn -0.2924 0.6452 0.7058
vn 0.7058 0.6452 0.2924
vn 0.2924 0.6452 -0.7058
vn -0.2924 0.6452 -0.7058
vn -0.5192 -0.8271 -0.2151
vn -0.3827 0.0000 -0.9239
vn -0.9239 0.0000 0.3827
vn 0.3827 0.0000 0.9239
vn 0.9239 0.0000 -0.3827
vn -0.9239 0.0000 -0.3827
vn -0.3827 0.0000 0.9239
vn 0.9239 0.0000 0.3827
vn 0.7569 0.5734 -0.3135
vn -0.2151 -0.8271 0.5192
vn 0.5192 -0.8271 0.2151
vn 0.2151 -0.8271 -0.5192
vn -0.2151 -0.8271 -0.5192
vn -0.5192 -0.8271 0.2151
vn 0.2151 -0.8271 0.5192
vn 0.5192 -0.8271 -0.2151
vn -0.3431 -0.3712 -0.8629
vn -0.7569 0.5734 -0.3135
vn -0.3135 0.5734 0.7569
vn 0.7569 0.5734 0.3135
vn 0.3135 0.5734 -0.7569
vn -0.3135 0.5734 -0.7569
vn -0.7569 0.5734 0.3135
vn 0.3135 0.5734 0.7569
vn 0.3443 0.3530 0.8700
vn -0.8708 -0.3208 0.3726
vn 0.3587 -0.2399 0.9021
vn 0.8510 -0.3756 -0.3669
vn -0.8508 -0.3744 -0.3687
vn -0.3587 -0.2399 0.9021
vn 0.8700 -0.3215 0.3738
vn 0.3431 -0.3712 -0.8629
vn -0.3443 0.3530 0.8700
vn 0.3450 0.3535 -0.8695
vn -0.8458 0.3896 -0.3645
vn 0.8435 0.3856 0.3740
vn -0.3450 0.3535 -0.8695
vn -0.8936 0.2539 0.3701
vn -0.8235 0.4532 -0.3411
vn 0.3812 0.0882 0.9203
vn -0.3161 0.5637 -0.7631
vn 0.8235 0.4532 -0.3411
vn 0.3161 0.5637 -0.7631
vn -0.5383 0.8127 -0.2230
vn -0.3812 0.0882 0.9203
vn -0.1974 0.9539 0.2262
vn 0.0003 -0.2307 0.9730
vn -0.8476 0.3979 0.3511
vn -0.8435 0.3856 0.3740
vn 0.8476 0.3979 0.3511
vn 0.8458 0.3896 -0.3645
vn -0.0003 0.2307 -0.9730
vn 0.8936 0.2539 0.3701
vn 0.3574 -0.3574 -0.8629
vn 0.1566 0.9125 -0.3780
vn -0.3382 -0.4680 -0.8165
vn 0.3574 0.3574 -0.8629
vn 0.8629 -0.3574 -0.3574
vn 0.3780 0.9125 -0.1566
vn 0.8165 -0.4680 0.3382
vn 0.8629 0.3574 -0.3574
vn 0.8629 -0.3574 0.3574
vn 0.3780 0.9125 0.1566
vn 0.8165 -0.4680 -0.3382
vn 0.8629 0.3574 0.3574
vn 0.3574 -0.3574 0.8629
vn 0.1566 0.9125 0.3780
vn 0.3382 -0.4680 0.8165
vn 0.3574 0.3574 0.8629
vn -0.3574 -0.3574 0.8629
vn -0.1566 0.9125 0.3780
vn 0.3382 -0.4680 -0.8165
vn -0.3574 0.3574 0.8629
vn -0.8629 -0.3574 0.3574
vn -0.3780 0.9125 0.1566
vn -0.3382 -0.4680 0.8165
vn -0.8629 0.3574 0.3574
vn -0.8629 0.3574 -0.3574
vn -0.8629 -0.3574 -0.3574
vn -0.3780 0.9125 -0.1566
vn -0.8165 -0.4680 -0.3382
vn -0.8165 -0.4680 0.3382
vn -0.3574 0.3574 -0.8629
vn -0.3574 -0.3574 -0.8629
vn -0.1566 0.9125 -0.3780
vn -0.3026 0.9448 0.1253
vn -0.1905 0.8672 0.4600
vn 0.1907 0.8670 0.4604
vn 0.3026 0.9448 0.1253
vn 0.5383 0.8127 -0.2230
vn 0.3622 0.3230 -0.8744
vn -0.3622 0.3230 -0.8744
vn -0.3026 0.9448 0.1254
vn 0.0003 0.1413 0.9900
usemtl Pieces.004
s off
f 1/1/1 2/2/1 4/3/1 3/4/1
f 3/4/2 4/3/2 6/5/2 5/6/2
f 5/6/3 6/5/3 8/7/3 7/8/3
f 7/8/4 8/7/4 10/9/4 9/10/4
f 9/10/5 10/9/5 12/11/5 11/12/5
f 11/12/6 12/11/6 14/13/6 13/14/6
f 12/11/7 10/9/7 21/15/7 22/16/7
f 13/14/8 14/13/8 16/17/8 15/18/8
f 15/18/9 16/17/9 2/19/9 1/20/9
f 1/21/10 3/22/10 5/23/10 7/24/10 9/25/10 11/26/10 13/27/10 15/28/10
f 19/29/11 17/30/11 25/31/11 27/32/11
f 2/19/12 16/17/12 24/33/12 18/34/12
f 4/3/13 2/2/13 18/35/13 17/30/13
f 8/7/14 6/5/14 19/29/14 20/36/14
f 14/13/15 12/11/15 22/16/15 23/37/15
f 10/9/16 8/7/16 20/36/16 21/15/16
f 16/17/17 14/13/17 23/37/17 24/33/17
f 6/5/18 4/3/18 17/30/18 19/29/18
f 26/38/19 32/39/19 40/40/19 34/41/19
f 24/33/20 23/37/20 31/42/20 32/39/20
f 22/16/21 21/15/21 29/43/21 30/44/21
f 20/36/22 19/29/22 27/32/22 28/45/22
f 17/30/23 18/35/23 26/46/23 25/31/23
f 18/34/24 24/33/24 32/39/24 26/38/24
f 23/37/25 22/16/25 30/44/25 31/42/25
f 21/15/26 20/36/26 28/45/26 29/43/26
f 36/47/27 35/48/27 43/49/27 44/50/27
f 31/42/28 30/44/28 38/51/28 39/52/28
f 29/43/29 28/45/29 36/47/29 37/53/29
f 27/32/30 25/31/30 33/54/30 35/48/30
f 32/39/31 31/42/31 39/52/31 40/40/31
f 30/44/32 29/43/32 37/53/32 38/51/32
f 28/45/33 27/32/33 35/48/33 36/47/33
f 25/31/34 26/46/34 34/55/34 33/54/34
f 48/56/35 47/57/35 55/58/35 56/59/35
f 33/54/36 34/55/36 42/60/36 41/61/36
f 34/41/37 40/40/37 48/56/37 42/62/37
f 39/52/38 38/51/38 46/63/38 47/57/38
f 37/53/39 36/47/39 44/50/39 45/64/39
f 35/48/40 33/54/40 41/61/40 43/49/40
f 40/40/41 39/52/41 47/57/41 48/56/41
f 38/51/42 37/53/42 45/64/42 46/63/42
f 53/65/43 52/66/43 60/67/43 61/68/43
f 46/63/44 45/64/44 53/65/44 54/69/44
f 44/50/45 43/49/45 51/70/45 52/66/45
f 41/61/46 42/60/46 50/71/46 49/72/46
f 42/62/47 48/56/47 56/59/47 50/73/47
f 47/57/48 46/63/48 54/69/48 55/58/48
f 45/64/49 44/50/49 52/66/49 53/65/49
f 43/49/50 41/61/50 49/72/50 51/70/50
f 58/74/51 64/75/51 72/76/51 66/77/51
f 51/70/52 49/72/52 57/78/52 59/79/52
f 56/59/53 55/58/53 63/80/53 64/75/53
f 54/69/54 53/65/54 61/68/54 62/81/54
f 52/66/55 51/70/55 59/79/55 60/67/55
f 49/72/56 50/71/56 58/82/56 57/78/56
f 50/73/57 56/59/57 64/75/57 58/74/57
f 55/58/58 54/69/58 62/81/58 63/80/58
f 70/83/59 69/84/59 77/85/59 78/86/59
f 63/80/60 62/81/60 70/83/60 71/87/60
f 61/68/61 60/67/61 68/88/61 69/84/61
f 59/79/62 57/78/62 65/89/62 67/90/62
f 64/75/63 63/80/63 71/87/63 72/76/63
f 62/81/64 61/68/64 69/84/64 70/83/64
f 60/67/65 59/79/65 67/90/65 68/88/65
f 57/78/66 58/82/66 66/91/66 65/89/66
f 80/92/67 79/93/67 87/94/67 88/95/67
f 68/88/68 67/90/68 75/96/68 76/97/68
f 65/89/69 66/91/69 74/98/69 73/99/69
f 66/77/70 72/76/70 80/92/70 74/100/70
f 71/87/71 70/83/71 78/86/71 79/93/71
f 69/84/72 68/88/72 76/97/72 77/85/72
f 67/90/73 65/89/73 73/99/73 75/96/73
f 72/76/74 71/87/74 79/93/74 80/92/74
f 87/94/75 86/101/75 94/102/75 95/103/75
f 78/86/76 77/85/76 85/104/76 86/101/76
f 76/97/77 75/96/77 83/105/77 84/106/77
f 73/99/78 74/98/78 82/107/78 81/108/78
f 74/100/79 80/92/79 88/95/79 82/109/79
f 79/93/80 78/86/80 86/101/80 87/94/80
f 77/85/81 76/97/81 84/106/81 85/104/81
f 75/96/82 73/99/82 81/108/82 83/105/82
f 89/110/83 90/111/83 98/112/83 97/113/83
f 85/104/84 84/106/84 92/114/84 93/115/84
f 83/105/85 81/108/85 89/110/85 91/116/85
f 88/95/86 87/94/86 95/103/86 96/117/86
f 86/101/87 85/104/87 93/115/87 94/102/87
f 84/106/88 83/105/88 91/116/88 92/114/88
f 81/108/89 82/107/89 90/111/89 89/110/89
f 82/109/90 88/95/90 96/117/90 90/118/90
f 104/119/91 103/120/91 111/121/91 112/122/91
f 90/118/92 96/117/92 104/119/92 98/123/92
f 95/103/93 94/102/93 102/124/93 103/120/93
f 93/115/94 92/114/94 100/125/94 101/126/94
f 91/116/95 89/110/95 97/113/95 99/127/95
f 96/117/96 95/103/96 103/120/96 104/119/96
f 94/102/97 93/115/97 101/126/97 102/124/97
f 92/114/98 91/116/98 99/127/98 100/125/98
f 107/128/99 105/129/99 113/130/99 115/131/99
f 102/124/100 101/126/100 109/132/100 110/133/100
f 100/125/101 99/127/101 107/128/101 108/134/101
f 97/113/102 98/112/102 106/135/102 105/129/102
f 98/123/103 104/119/103 112/122/103 106/136/103
f 103/120/104 102/124/104 110/133/104 111/121/104
f 101/126/105 100/125/105 108/134/105 109/132/105
f 99/127/106 97/113/106 105/129/106 107/128/106
f 114/137/107 120/138/107 126/139/107 122/140/107
f 112/122/108 111/121/108 119/141/108 120/138/108
f 110/133/109 109/132/109 117/142/109 118/143/109
f 108/134/110 107/128/110 115/131/110 116/144/110
f 105/129/111 106/135/111 114/145/111 113/130/111
f 106/136/112 112/122/112 120/138/112 114/137/112
f 111/121/113 110/133/113 118/143/113 119/141/113
f 109/132/114 108/134/114 116/144/114 117/142/114
f 124/146/115 123/147/115 157/148/115 156/149/115 129/150/115
f 119/141/116 118/143/116 125/151/116 153/152/116 154/153/116 158/154/116
f 117/142/117 116/144/117 123/147/117 124/146/117
f 115/131/118 113/130/118 121/155/118 145/156/118 146/157/118 148/158/118
f 120/138/119 119/141/119 158/154/119 147/159/119 140/160/119 126/139/119
f 118/143/120 117/142/120 124/146/120 125/151/120
f 116/144/121 115/131/121 148/158/121 152/161/121 150/162/121 123/147/121
f 113/130/122 114/145/122 122/163/122 121/155/122
f 125/151/123 124/146/123 129/150/123 149/164/123 151/165/123
f 121/155/124 122/163/124 131/166/124 132/167/124
f 126/139/125 140/160/125 141/168/125 128/169/125 127/170/125
f 123/147/126 150/162/126 157/148/126
f 122/140/127 126/139/127 127/170/127 131/171/127
f 128/169/128 139/172/128 138/173/128 134/174/128
f 127/170/129 128/169/129 134/174/129 133/175/129
f 129/150/130 156/149/130 155/176/130
f 131/171/131 127/170/131 133/175/131 136/177/131
f 130/178/132 132/167/132 137/179/132 135/180/132
f 132/167/133 131/166/133 136/181/133 137/179/133
f 133/175/134 190/182/134 191/183/134
f 155/176/135 149/164/135 129/150/135
f 154/184/136 152/185/136 148/186/136 146/187/136 147/188/136 158/189/136
f 147/190/137 146/191/137 145/192/137 144/193/137 142/194/137 143/195/137 138/196/137 139/197/137 141/198/137 140/199/137
f 141/168/138 139/172/138 128/169/138
f 151/165/139 153/152/139 125/151/139
f 142/200/140 144/201/140 130/178/140
f 144/201/141 145/156/141 121/155/141 132/167/141 130/178/141
f 152/202/142 154/203/142 153/204/142 151/205/142 149/206/142 155/207/142 156/208/142 157/209/142 150/210/142
f 143/211/143 142/200/143 130/178/143 135/180/143
f 161/212/144 160/213/144 163/214/144 164/215/144
f 159/216/145 175/217/145 162/218/145
f 184/219/146 161/212/146 171/220/146 191/183/146
f 160/213/147 159/216/147 162/218/147 163/214/147
f 164/215/148 163/214/148 166/221/148 167/222/148
f 162/218/149 175/223/149 165/224/149
f 167/222/150 170/225/150 187/226/150 186/227/150
f 163/214/151 162/218/151 165/224/151 166/221/151
f 167/222/152 166/221/152 169/228/152 170/225/152
f 165/224/153 175/229/153 168/230/153
f 164/215/154 167/222/154 186/227/154 185/231/154
f 166/221/155 165/224/155 168/230/155 169/228/155
f 170/225/156 169/228/156 173/232/156 174/233/156
f 168/230/157 175/234/157 172/235/157
f 170/225/158 174/233/158 188/236/158 187/226/158
f 169/228/159 168/230/159 172/235/159 173/232/159
f 174/233/160 173/232/160 177/237/160 178/238/160
f 172/235/161 175/239/161 176/240/161
f 161/212/162 164/215/162 185/231/162 171/220/162
f 173/232/163 172/235/163 176/240/163 177/237/163
f 178/238/164 177/237/164 180/241/164 181/242/164
f 176/240/165 175/243/165 179/244/165
f 174/233/166 178/238/166 189/245/166 188/236/166
f 177/237/167 176/240/167 179/244/167 180/241/167
f 180/246/168 179/247/168 182/248/168 183/249/168
f 181/250/169 180/246/169 183/249/169 184/219/169
f 179/247/170 175/251/170 182/248/170
f 181/250/171 184/219/171 191/183/171 190/182/171
f 178/238/172 181/242/172 190/252/172 189/245/172
f 183/249/173 182/248/173 159/216/173 160/213/173
f 184/219/174 183/249/174 160/213/174 161/212/174
f 182/248/175 175/253/175 159/216/175
f 134/174/176 189/245/176 190/252/176
f 138/196/177 188/236/177 189/245/177
f 143/211/178 187/226/178 188/236/178
f 187/226/179 143/211/179 186/227/179
f 137/179/180 186/227/180 135/180/180
f 136/181/181 185/231/181 137/179/181
f 136/177/182 191/183/182 171/220/182
f 133/175/134 134/174/134 190/182/134
f 134/174/183 138/173/183 189/245/183
f 138/196/184 143/195/184 188/236/184
f 137/179/180 185/231/180 186/227/180
f 136/181/181 171/220/181 185/231/181
f 136/177/182 133/175/182 191/183/182
f 143/211/179 135/180/179 186/227/179
