# Blender v3.0.1 OBJ File: ''
# www.blender.org
mtllib chess_rook.mtl
o Rook_Cylinder.001
v 0.000001 -30.428040 -21.547062
v 0.000001 -22.414322 -20.000000
v 15.236074 -30.428040 -15.236073
v 14.142137 -22.414322 -14.142136
v 21.547062 -30.428040 0.000001
v 20.000000 -22.414322 0.000001
v 15.236074 -30.428040 15.236073
v 14.142137 -22.414322 14.142136
v -0.000001 -30.428040 21.547062
v -0.000001 -22.414322 20.000000
v -15.236074 -30.428040 15.236072
v -14.142137 -22.414322 14.142133
v -21.547060 -30.428040 -0.000000
v -19.999998 -22.414322 -0.000000
v -15.236074 -30.428040 -15.236073
v -14.142137 -22.414322 -14.142134
v 0.000001 -26.821987 -15.551995
v 10.996922 -26.821987 -10.996922
v 15.551995 -26.821987 0.000001
v 10.996922 -26.821987 10.996922
v -0.000000 -26.821987 15.551995
v -10.996922 -26.821987 10.996919
v -15.551994 -26.821987 -0.000000
v -10.996922 -26.821987 -10.996920
v 0.000001 -32.911961 -17.398497
v 12.302595 -32.911961 -12.302594
v 17.398499 -32.911961 0.000001
v 12.302595 -32.911961 12.302594
v -0.000000 -32.911961 17.398497
v -12.302595 -32.911961 12.302593
v -17.398493 -32.911961 -0.000000
v -12.302595 -32.911961 -12.302594
v 10.805862 -13.306612 -10.805861
v 0.000001 -13.306612 -15.281796
v 15.281796 -13.306612 0.000001
v 10.805862 -13.306612 10.805861
v -0.000000 -13.306612 15.281796
v -10.805862 -13.306612 10.805860
v -15.281794 -13.306612 -0.000000
v -10.805862 -13.306612 -10.805860
v 10.805862 -10.160311 -10.805861
v 0.000001 -10.160311 -15.281796
v 15.281796 -10.160311 0.000001
v 10.805862 -10.160311 10.805861
v -0.000000 -10.160311 15.281796
v -10.805862 -10.160311 10.805860
v -15.281794 -10.160311 -0.000000
v -10.805862 -10.160311 -10.805860
v 9.934487 -9.663527 -9.934486
v 0.000001 -9.663527 -14.049486
v 14.049486 -9.663527 0.000001
v 9.934487 -9.663527 9.934486
v -0.000000 -9.663527 14.049486
v -9.934487 -9.663527 9.934484
v -14.049484 -9.663527 -0.000000
v -9.934487 -9.663527 -9.934484
v 10.539446 -9.001147 -10.539445
v 0.000001 -9.001147 -14.905027
v 14.905027 -9.001147 0.000001
v 10.539446 -9.001147 10.539445
v -0.000000 -9.001147 14.905027
v -10.539446 -9.001147 10.539444
v -14.905025 -9.001147 -0.000000
v -10.539446 -9.001147 -10.539444
v 9.617163 -7.841984 -9.617162
v 0.000001 -7.841984 -13.600722
v 13.600722 -7.841984 0.000001
v 9.617163 -7.841984 9.617162
v -0.000000 -7.841984 13.600722
v -9.617163 -7.841984 9.617161
v -13.600721 -7.841984 -0.000000
v -9.617163 -7.841984 -9.617161
v 7.954143 22.296255 -7.954142
v 0.000000 22.296255 -11.248857
v 11.248857 22.296255 0.000000
v 7.954143 22.296255 7.954142
v -0.000001 22.296255 11.248857
v -7.954144 22.296255 7.954142
v -11.248857 22.296255 -0.000000
v -7.954144 22.296255 -7.954142
v 8.321287 22.958633 -8.321287
v 0.000000 22.958633 -11.768080
v 11.768080 22.958633 0.000000
v 8.321287 22.958633 8.321287
v -0.000001 22.958633 11.768080
v -8.321289 22.958633 8.321286
v -11.768079 22.958633 -0.000000
v -8.321289 22.958633 -8.321286
v 8.321287 24.236374 -8.321287
v 0.000000 24.236374 -11.768080
v 11.768080 24.236374 0.000000
v 8.321287 24.236374 8.321287
v -0.000001 24.236374 11.768080
v -8.321289 24.236374 8.321286
v -11.768079 24.236374 -0.000000
v -8.321289 24.236374 -8.321286
v 11.125437 25.478333 -11.125436
v 0.000001 25.478333 -15.733747
v 15.733747 25.478333 0.000001
v 11.125437 25.478333 11.125436
v -0.000001 25.478333 15.733747
v -11.125439 25.478333 11.125435
v -15.733746 25.478333 -0.000000
v -11.125439 25.478333 -11.125435
v 8.351029 31.964130 -8.351028
v 0.000001 31.964130 -11.810141
v 11.810141 31.964130 0.000000
v 8.351029 31.964130 8.351028
v -0.000001 31.964130 11.810141
v -8.351029 31.964130 8.351027
v -11.810140 31.964130 -0.000000
v -8.351030 31.964130 -8.351027
v 11.125437 31.964130 -11.125436
v 0.000001 31.964130 -15.733747
v 15.733747 31.964130 0.000001
v 11.125437 31.964130 11.125436
v -0.000001 31.964130 15.733747
v -11.125439 31.964130 11.125435
v -15.733746 31.964130 -0.000000
v -11.125439 31.964130 -11.125435
v 11.125437 35.826035 -11.125436
v 0.000001 35.826035 -15.733747
v 11.125437 35.826035 11.125436
v 15.733747 35.826035 0.000001
v -11.125439 35.826035 11.125435
v -0.000001 35.826035 15.733747
v -11.125439 35.826035 -11.125435
v -15.733746 35.826035 -0.000000
v 8.351029 35.826035 -8.351028
v 0.000001 35.826035 -11.810141
v 8.351029 35.826035 8.351028
v 11.810141 35.826035 0.000000
v -8.351029 35.826035 8.351027
v -0.000001 35.826035 11.810141
v -8.351030 35.826035 -8.351027
v -11.810140 35.826035 -0.000000
vt 1.000000 0.586806
vt 1.000000 1.000000
vt 0.875000 1.000000
vt 0.875000 0.586806
vt 0.750000 1.000000
vt 0.750000 0.586806
vt 0.625000 1.000000
vt 0.625000 0.586806
vt 0.500000 1.000000
vt 0.500000 0.586806
vt 0.375000 1.000000
vt 0.375000 0.586806
vt 0.250000 1.000000
vt 0.250000 0.586806
vt 0.500000 1.000000
vt 0.375000 1.000000
vt 0.125000 1.000000
vt 0.125000 0.586806
vt 0.000000 1.000000
vt 0.000000 0.586806
vt 0.625000 0.500000
vt 0.500000 0.500000
vt 0.500000 0.500000
vt 0.625000 0.500000
vt 0.125000 0.500000
vt 0.000000 0.500000
vt 0.250000 0.500000
vt 0.375000 0.500000
vt 0.750000 0.500000
vt 0.875000 0.500000
vt 1.000000 0.500000
vt 0.750000 0.490000
vt 0.919706 0.419706
vt 0.990000 0.250000
vt 0.919706 0.080294
vt 0.750000 0.010000
vt 0.580294 0.080294
vt 0.510000 0.250000
vt 0.580294 0.419706
vt 0.125000 0.500000
vt 0.250000 0.500000
vt 0.750000 0.500000
vt 0.875000 0.500000
vt 0.375000 0.500000
vt 0.000000 0.500000
vt 1.000000 0.500000
vt 0.625000 1.000000
vt 0.750000 1.000000
vt 0.750000 1.000000
vt 0.625000 1.000000
vt 0.125000 1.000000
vt 0.000000 1.000000
vt 1.000000 1.000000
vt 0.875000 1.000000
vt 0.250000 1.000000
vt 0.125000 1.000000
vt 0.250000 1.000000
vt 0.250000 1.000000
vt 0.125000 1.000000
vt 1.000000 1.000000
vt 0.875000 1.000000
vt 0.000000 1.000000
vt 0.375000 1.000000
vt 0.500000 1.000000
vt 0.500000 1.000000
vt 0.625000 1.000000
vt 0.625000 1.000000
vt 0.500000 1.000000
vt 0.375000 1.000000
vt 0.750000 1.000000
vt 1.000000 1.000000
vt 0.875000 1.000000
vt 0.000000 1.000000
vt 0.000000 1.000000
vt 0.125000 1.000000
vt 0.125000 1.000000
vt 0.000000 1.000000
vt 0.875000 1.000000
vt 0.750000 1.000000
vt 0.250000 1.000000
vt 0.375000 1.000000
vt 1.000000 1.000000
vt 0.375000 1.000000
vt 0.500000 1.000000
vt 0.500000 1.000000
vt 0.375000 1.000000
vt 0.250000 1.000000
vt 0.625000 1.000000
vt 0.875000 1.000000
vt 0.750000 1.000000
vt 1.000000 1.000000
vt 0.125000 1.000000
vt 0.250000 1.000000
vt 0.250000 1.000000
vt 0.125000 1.000000
vt 0.750000 1.000000
vt 0.625000 1.000000
vt 1.000000 1.000000
vt 0.875000 1.000000
vt 0.000000 1.000000
vt 0.375000 1.000000
vt 0.375000 1.000000
vt 0.250000 1.000000
vt 0.500000 1.000000
vt 0.750000 1.000000
vt 0.625000 1.000000
vt 1.000000 1.000000
vt 0.875000 1.000000
vt 0.000000 1.000000
vt 0.875000 1.000000
vt 1.000000 1.000000
vt 1.000000 1.000000
vt 0.875000 1.000000
vt 0.625000 1.000000
vt 0.500000 1.000000
vt 0.750000 1.000000
vt 0.125000 1.000000
vt 0.000000 1.000000
vt 0.125000 1.000000
vt 0.250000 1.000000
vt 0.250000 1.000000
vt 0.125000 1.000000
vt 0.000000 1.000000
vt 0.375000 1.000000
vt 0.625000 1.000000
vt 0.500000 1.000000
vt 0.750000 1.000000
vt 0.377385 0.377385
vt 0.250000 0.430150
vt 0.122615 0.377385
vt 0.069850 0.250000
vt 0.122615 0.122615
vt 0.250000 0.069850
vt 0.377385 0.122615
vt 0.430150 0.250000
vt 0.500000 1.000000
vt 0.375000 1.000000
vt 0.750000 1.000000
vt 0.625000 1.000000
vt 1.000000 1.000000
vt 0.875000 1.000000
vt 0.000000 1.000000
vt 0.500000 1.000000
vt 0.375000 1.000000
vt 0.490000 0.250000
vt 0.419706 0.419706
vt 0.430150 0.250000
vt 0.490000 0.250000
vt 0.250000 0.010000
vt 0.419706 0.080294
vt 0.377385 0.122615
vt 0.010000 0.250000
vt 0.080294 0.080294
vt 0.419706 0.419706
vt 0.377385 0.377385
vt 0.250000 0.490000
vt 0.080294 0.419706
vt 0.250000 0.430150
vt 0.250000 0.490000
vt 0.419706 0.080294
vt 0.250000 0.069850
vt 0.122615 0.122615
vt 0.080294 0.080294
vt 0.250000 0.010000
vt 0.069850 0.250000
vt 0.122615 0.377385
vt 0.080294 0.419706
vt 0.010000 0.250000
vt 0.250000 1.000000
vt 0.125000 1.000000
vt 1.000000 1.000000
vt 0.875000 1.000000
vt 0.750000 1.000000
vt 0.625000 1.000000
vn 0.2799 -0.6819 -0.6757
vn 0.6757 -0.6819 -0.2799
vn 0.6757 -0.6819 0.2799
vn 0.2799 -0.6819 0.6757
vn -0.2799 -0.6819 0.6757
vn -0.6757 -0.6819 0.2799
vn -0.3452 0.4317 0.8333
vn -0.6757 -0.6819 -0.2799
vn -0.2799 -0.6819 -0.6757
vn 0.2081 -0.8392 0.5025
vn -0.2088 0.8380 -0.5041
vn -0.5041 0.8380 -0.2088
vn -0.5041 0.8380 0.2088
vn -0.2088 0.8380 0.5041
vn 0.2088 0.8380 0.5041
vn 0.5041 0.8380 0.2088
vn 0.5041 0.8380 -0.2088
vn 0.2088 0.8380 -0.5041
vn 0.0000 -1.0000 0.0000
vn -0.5025 -0.8392 -0.2081
vn 0.5025 -0.8392 -0.2081
vn -0.2081 -0.8392 0.5025
vn -0.2081 -0.8392 -0.5025
vn 0.2081 -0.8392 -0.5025
vn 0.5025 -0.8392 0.2081
vn -0.5025 -0.8392 0.2081
vn 0.9239 0.0000 0.3827
vn -0.3452 0.4317 -0.8333
vn 0.3452 0.4317 -0.8333
vn 0.8333 0.4317 0.3452
vn -0.8333 0.4317 0.3452
vn 0.3452 0.4317 0.8333
vn -0.8333 0.4317 -0.3452
vn 0.8333 0.4317 -0.3452
vn -0.3695 0.9165 -0.1530
vn 0.3827 0.0000 -0.9239
vn -0.3827 0.0000 -0.9239
vn -0.9239 0.0000 0.3827
vn 0.3827 0.0000 0.9239
vn 0.9239 0.0000 -0.3827
vn -0.9239 0.0000 -0.3827
vn -0.3827 0.0000 0.9239
vn 0.2458 -0.7665 0.5934
vn -0.1530 0.9165 0.3695
vn 0.3695 0.9165 0.1530
vn 0.1530 0.9165 -0.3695
vn -0.1530 0.9165 -0.3695
vn -0.3695 0.9165 0.1530
vn 0.1530 0.9165 0.3695
vn 0.3695 0.9165 -0.1530
vn -0.2653 0.7207 -0.6405
vn 0.5934 -0.7665 -0.2458
vn -0.5934 -0.7665 -0.2458
vn -0.2458 -0.7665 0.5934
vn 0.5934 -0.7665 0.2458
vn 0.2458 -0.7665 -0.5934
vn -0.2458 -0.7665 -0.5934
vn -0.5934 -0.7665 0.2458
vn -0.3817 0.0719 0.9215
vn -0.6405 0.7207 0.2653
vn 0.2653 0.7207 0.6405
vn 0.6405 0.7207 -0.2653
vn -0.6405 0.7207 -0.2653
vn -0.2653 0.7207 0.6405
vn 0.6405 0.7207 0.2653
vn 0.2653 0.7207 -0.6405
vn -0.7483 -0.5865 -0.3099
vn 0.9215 0.0719 0.3817
vn 0.3817 0.0719 -0.9215
vn -0.3817 0.0719 -0.9215
vn -0.9215 0.0719 0.3817
vn 0.3817 0.0719 0.9215
vn 0.9215 0.0719 -0.3817
vn -0.9215 0.0719 -0.3817
vn -0.3099 -0.5865 0.7483
vn 0.7483 -0.5865 0.3099
vn 0.3099 -0.5865 -0.7483
vn -0.3099 -0.5865 -0.7483
vn -0.7483 -0.5865 0.3099
vn 0.3099 -0.5865 0.7483
vn 0.7483 -0.5865 -0.3099
vn 0.1229 -0.9471 -0.2966
vn -0.1229 -0.9471 -0.2966
vn -0.2966 -0.9471 0.1229
vn 0.1229 -0.9471 0.2966
vn 0.2966 -0.9471 -0.1229
vn -0.2966 -0.9471 -0.1229
vn -0.1229 -0.9471 0.2966
vn 0.2966 -0.9471 0.1229
vn 0.0000 1.0000 0.0000
vn 0.0000 0.0000 -1.0000
vn 0.7071 0.0000 0.7071
vn -0.7071 0.0000 0.7071
vn 1.0000 0.0000 0.0000
vn -0.7071 0.0000 -0.7071
vn 0.0000 0.0000 1.0000
vn 0.7071 0.0000 -0.7071
vn -1.0000 0.0000 0.0000
usemtl Pieces.002
s off
f 17/1/1 2/2/1 4/3/1 18/4/1
f 18/4/2 4/3/2 6/5/2 19/6/2
f 19/6/3 6/5/3 8/7/3 20/8/3
f 20/8/4 8/7/4 10/9/4 21/10/4
f 21/10/5 10/9/5 12/11/5 22/12/5
f 22/12/6 12/11/6 14/13/6 23/14/6
f 12/11/7 10/9/7 37/15/7 38/16/7
f 23/14/8 14/13/8 16/17/8 24/18/8
f 24/18/9 16/17/9 2/19/9 17/20/9
f 7/21/10 9/22/10 29/23/10 28/24/10
f 15/25/11 24/18/11 17/20/11 1/26/11
f 13/27/12 23/14/12 24/18/12 15/25/12
f 11/28/13 22/12/13 23/14/13 13/27/13
f 9/22/14 21/10/14 22/12/14 11/28/14
f 7/21/15 20/8/15 21/10/15 9/22/15
f 5/29/16 19/6/16 20/8/16 7/21/16
f 3/30/17 18/4/17 19/6/17 5/29/17
f 1/31/18 17/1/18 18/4/18 3/30/18
f 25/32/19 26/33/19 27/34/19 28/35/19 29/36/19 30/37/19 31/38/19 32/39/19
f 13/27/20 15/25/20 32/40/20 31/41/20
f 3/30/21 5/29/21 27/42/21 26/43/21
f 9/22/22 11/28/22 30/44/22 29/23/22
f 15/25/23 1/26/23 25/45/23 32/40/23
f 1/31/24 3/30/24 26/43/24 25/46/24
f 5/29/25 7/21/25 28/24/25 27/42/25
f 11/28/26 13/27/26 31/41/26 30/44/26
f 36/47/27 35/48/27 43/49/27 44/50/27
f 2/19/28 16/17/28 40/51/28 34/52/28
f 4/3/29 2/2/29 34/53/29 33/54/29
f 8/7/30 6/5/30 35/48/30 36/47/30
f 14/13/31 12/11/31 38/16/31 39/55/31
f 10/9/32 8/7/32 36/47/32 37/15/32
f 16/17/33 14/13/33 39/55/33 40/51/33
f 6/5/34 4/3/34 33/54/34 35/48/34
f 48/56/35 47/57/35 55/58/35 56/59/35
f 33/54/36 34/53/36 42/60/36 41/61/36
f 34/52/37 40/51/37 48/56/37 42/62/37
f 39/55/38 38/16/38 46/63/38 47/57/38
f 37/15/39 36/47/39 44/50/39 45/64/39
f 35/48/40 33/54/40 41/61/40 43/49/40
f 40/51/41 39/55/41 47/57/41 48/56/41
f 38/16/42 37/15/42 45/64/42 46/63/42
f 53/65/43 52/66/43 60/67/43 61/68/43
f 46/63/44 45/64/44 53/65/44 54/69/44
f 44/50/45 43/49/45 51/70/45 52/66/45
f 41/61/46 42/60/46 50/71/46 49/72/46
f 42/62/47 48/56/47 56/59/47 50/73/47
f 47/57/48 46/63/48 54/69/48 55/58/48
f 45/64/49 44/50/49 52/66/49 53/65/49
f 43/49/50 41/61/50 49/72/50 51/70/50
f 58/74/51 64/75/51 72/76/51 66/77/51
f 51/70/52 49/72/52 57/78/52 59/79/52
f 56/59/53 55/58/53 63/80/53 64/75/53
f 54/69/54 53/65/54 61/68/54 62/81/54
f 52/66/55 51/70/55 59/79/55 60/67/55
f 49/72/56 50/71/56 58/82/56 57/78/56
f 50/73/57 56/59/57 64/75/57 58/74/57
f 55/58/58 54/69/58 62/81/58 63/80/58
f 70/83/59 69/84/59 77/85/59 78/86/59
f 63/80/60 62/81/60 70/83/60 71/87/60
f 61/68/61 60/67/61 68/88/61 69/84/61
f 59/79/62 57/78/62 65/89/62 67/90/62
f 64/75/63 63/80/63 71/87/63 72/76/63
f 62/81/64 61/68/64 69/84/64 70/83/64
f 60/67/65 59/79/65 67/90/65 68/88/65
f 57/78/66 58/82/66 66/91/66 65/89/66
f 80/92/67 79/93/67 87/94/67 88/95/67
f 68/88/68 67/90/68 75/96/68 76/97/68
f 65/89/69 66/91/69 74/98/69 73/99/69
f 66/77/70 72/76/70 80/92/70 74/100/70
f 71/87/71 70/83/71 78/86/71 79/93/71
f 69/84/72 68/88/72 76/97/72 77/85/72
f 67/90/73 65/89/73 73/99/73 75/96/73
f 72/76/74 71/87/74 79/93/74 80/92/74
f 87/94/38 86/101/38 94/102/38 95/103/38
f 78/86/75 77/85/75 85/104/75 86/101/75
f 76/97/76 75/96/76 83/105/76 84/106/76
f 73/99/77 74/98/77 82/107/77 81/108/77
f 74/100/78 80/92/78 88/95/78 82/109/78
f 79/93/79 78/86/79 86/101/79 87/94/79
f 77/85/80 76/97/80 84/106/80 85/104/80
f 75/96/81 73/99/81 81/108/81 83/105/81
f 89/110/82 90/111/82 98/112/82 97/113/82
f 85/104/39 84/106/39 92/114/39 93/115/39
f 83/105/40 81/108/40 89/110/40 91/116/40
f 88/95/41 87/94/41 95/103/41 96/117/41
f 86/101/42 85/104/42 93/115/42 94/102/42
f 84/106/27 83/105/27 91/116/27 92/114/27
f 81/108/36 82/107/36 90/111/36 89/110/36
f 82/109/37 88/95/37 96/117/37 90/118/37
f 104/119/41 103/120/41 119/121/41 120/122/41
f 90/118/83 96/117/83 104/119/83 98/123/83
f 95/103/84 94/102/84 102/124/84 103/120/84
f 93/115/85 92/114/85 100/125/85 101/126/85
f 91/116/86 89/110/86 97/113/86 99/127/86
f 96/117/87 95/103/87 103/120/87 104/119/87
f 94/102/88 93/115/88 101/126/88 102/124/88
f 92/114/89 91/116/89 99/127/89 100/125/89
f 105/128/90 106/129/90 112/130/90 111/131/90 110/132/90 109/133/90 108/134/90 107/135/90
f 102/124/42 101/126/42 117/136/42 118/137/42
f 100/125/27 99/127/27 115/138/27 116/139/27
f 97/113/36 98/112/36 114/140/36 113/141/36
f 98/123/37 104/119/37 120/122/37 114/142/37
f 103/120/38 102/124/38 118/137/38 119/121/38
f 101/126/39 100/125/39 116/139/39 117/136/39
f 99/127/40 97/113/40 113/141/40 115/138/40
f 118/137/42 117/136/42 126/143/42 125/144/42
f 105/128/90 107/135/90 115/145/90 113/146/90
f 115/145/91 107/135/91 132/147/91 124/148/91
f 108/134/90 109/133/90 117/149/90 116/150/90
f 107/135/41 108/134/41 131/151/41 132/147/41
f 110/132/90 111/131/90 119/152/90 118/153/90
f 105/128/92 113/146/92 121/154/92 129/155/92
f 112/130/90 106/129/90 114/156/90 120/157/90
f 130/158/90 129/155/90 121/154/90 122/159/90
f 132/147/90 131/151/90 123/160/90 124/148/90
f 134/161/90 133/162/90 125/163/90 126/164/90
f 136/165/90 135/166/90 127/167/90 128/168/90
f 108/134/93 116/150/93 123/160/93 131/151/93
f 109/133/36 110/132/36 133/162/36 134/161/36
f 117/149/94 109/133/94 134/161/94 126/164/94
f 120/122/41 119/121/41 128/169/41 127/170/41
f 110/132/95 118/153/95 125/163/95 133/162/95
f 111/131/27 112/130/27 135/166/27 136/165/27
f 113/141/36 114/140/36 122/171/36 121/172/36
f 119/152/96 111/131/96 136/165/96 128/168/96
f 106/129/42 105/128/42 129/155/42 130/158/42
f 112/130/97 120/157/97 127/167/97 135/166/97
f 114/156/98 106/129/98 130/158/98 122/159/98
f 116/139/27 115/138/27 124/173/27 123/174/27
